<svg id="Layer_1" data-name="Layer 1" xmlns="http://www.w3.org/2000/svg" viewBox="0 0 50 29.78"><defs><style>.cls-1{fill:#2d2d2d;}.cls-2{fill:#3670c7;}</style></defs><path class="cls-1" d="M19.2,20.79a6.88,6.88,0,0,1-2.59,5.66,11.26,11.26,0,0,1-7.2,2.07,16.87,16.87,0,0,1-7.52-1.6V21.69a30.09,30.09,0,0,0,4.55,1.69,13.27,13.27,0,0,0,3.4.49,4.88,4.88,0,0,0,2.85-.7,2.44,2.44,0,0,0,1-2.11,2.32,2.32,0,0,0-.44-1.39A4.75,4.75,0,0,0,12,18.5a31.07,31.07,0,0,0-3.44-1.8,16.31,16.31,0,0,1-3.65-2.2,8.18,8.18,0,0,1-1.94-2.45A6.92,6.92,0,0,1,2.2,8.78,6.85,6.85,0,0,1,4.59,3.24a9.93,9.93,0,0,1,6.6-2,15.43,15.43,0,0,1,4,.49A25.77,25.77,0,0,1,19.07,3.1L17.25,7.47a26,26,0,0,0-3.51-1.21A11.36,11.36,0,0,0,11,5.91a3.57,3.57,0,0,0-2.45.75A2.44,2.44,0,0,0,7.7,8.6a2.41,2.41,0,0,0,.35,1.3A3.64,3.64,0,0,0,9.15,11a32,32,0,0,0,3.56,1.86,14.24,14.24,0,0,1,5.11,3.57A7,7,0,0,1,19.2,20.79Z"/><path class="cls-2" d="M48.11,14.85q0,6.58-3.27,10.13t-9.37,3.54q-6.1,0-9.37-3.54T22.83,14.81q0-6.63,3.28-10.12t9.4-3.5q6.12,0,9.36,3.52T48.11,14.85Zm-19.38,0c0,3,.57,5.2,1.69,6.7a5.92,5.92,0,0,0,5,2.25q6.74,0,6.74-9t-6.7-9a6,6,0,0,0-5.07,2.26Q28.73,10.39,28.73,14.85Z"/></svg>