<?xml version="1.0" standalone="no"?>
<!DOCTYPE svg PUBLIC "-//W3C//DTD SVG 20010904//EN"
 "http://www.w3.org/TR/2001/REC-SVG-20010904/DTD/svg10.dtd">
<svg version="1.0" xmlns="http://www.w3.org/2000/svg"
 width="1600.000000pt" height="1600.000000pt" viewBox="0 0 1600.000000 1600.000000"
 preserveAspectRatio="xMidYMid meet">
<metadata>
Created by potrace 1.14, written by Peter Selinger 2001-2017
</metadata>
<g transform="translate(0.000000,1600.000000) scale(0.100000,-0.100000)"
fill="#000000" stroke="none">
<path d="M11048 12375 c-2 -2 -43 -6 -93 -9 -105 -8 -174 -14 -230 -21 -22 -2
-67 -7 -100 -10 -33 -4 -71 -8 -85 -11 -14 -3 -38 -7 -55 -10 -16 -3 -43 -7
-60 -10 -16 -3 -46 -7 -65 -9 -19 -2 -66 -12 -105 -21 -38 -9 -83 -18 -100
-20 -16 -3 -41 -9 -55 -14 -14 -5 -36 -12 -50 -14 -44 -9 -64 -14 -90 -24 -14
-5 -27 -10 -30 -10 -3 0 -25 -6 -50 -13 -25 -7 -47 -13 -50 -14 -54 -14 -248
-84 -305 -109 -16 -8 -64 -28 -105 -46 -112 -48 -310 -151 -310 -161 0 -5 -3
-8 -8 -7 -9 3 -155 -83 -160 -94 -2 -5 -10 -8 -18 -8 -8 0 -14 -4 -14 -10 0
-5 -5 -10 -10 -10 -6 0 -16 -5 -23 -10 -7 -6 -37 -28 -67 -50 -62 -45 -108
-80 -124 -95 -6 -5 -38 -32 -71 -60 -74 -62 -164 -145 -220 -205 -63 -66 -118
-126 -135 -147 -8 -10 -38 -45 -65 -78 -50 -61 -56 -69 -121 -160 -30 -41 -92
-136 -151 -231 -34 -54 -103 -183 -103 -193 0 -6 -4 -11 -10 -11 -5 0 -10 -9
-10 -20 0 -11 -4 -20 -10 -20 -5 0 -10 -9 -10 -20 0 -11 -5 -20 -12 -20 -6 0
-8 -3 -5 -7 4 -3 1 -16 -6 -27 -11 -18 -40 -85 -102 -231 -18 -43 -29 -79 -27
-87 1 -5 -3 -8 -8 -8 -5 0 -9 -3 -8 -7 1 -5 -4 -21 -10 -36 -7 -16 -12 -32
-12 -37 0 -5 -16 -55 -35 -112 -19 -57 -36 -113 -38 -124 -1 -10 -6 -25 -10
-31 -5 -7 -6 -13 -2 -13 3 0 1 -8 -4 -18 -6 -11 -12 -30 -15 -43 -6 -33 -25
-118 -32 -149 -3 -14 -7 -32 -9 -40 -2 -8 -4 -15 -5 -15 -2 0 -5 -20 -16 -85
-4 -25 -8 -49 -10 -55 -1 -5 -5 -23 -8 -40 -3 -16 -8 -41 -10 -55 -3 -14 -8
-43 -11 -65 -3 -22 -8 -53 -11 -70 -3 -16 -7 -46 -9 -65 -2 -19 -6 -51 -9 -70
-3 -19 -8 -62 -10 -95 -3 -33 -8 -87 -11 -120 -4 -33 -8 -89 -10 -125 -2 -36
-4 -65 -5 -65 -1 0 -3 -43 -6 -95 -14 -272 -1 -923 21 -1075 3 -22 8 -69 11
-105 8 -89 12 -121 18 -150 2 -14 7 -45 9 -70 3 -25 8 -61 11 -80 3 -19 8 -48
11 -65 12 -78 36 -201 41 -214 2 -8 7 -30 10 -50 3 -20 10 -54 16 -76 6 -22
13 -47 14 -56 2 -8 11 -42 19 -75 9 -32 17 -63 19 -69 4 -18 37 -129 42 -145
3 -8 5 -16 5 -17 0 -2 7 -22 15 -45 9 -24 17 -47 18 -53 5 -17 88 -232 114
-295 8 -19 14 -36 14 -37 -2 -5 179 -358 191 -372 7 -9 21 -32 31 -51 22 -41
165 -253 176 -260 4 -3 9 -10 11 -16 18 -53 361 -420 499 -535 36 -30 67 -56
70 -59 3 -3 32 -25 65 -50 33 -25 62 -48 63 -52 2 -5 9 -8 16 -8 7 0 21 -8 32
-18 24 -22 139 -97 230 -150 76 -44 329 -173 348 -177 6 -1 31 -12 56 -23 25
-12 50 -22 56 -22 6 0 33 -10 60 -22 27 -12 51 -23 54 -23 3 -1 55 -17 115
-37 113 -37 415 -117 469 -124 17 -2 42 -7 56 -10 14 -3 40 -7 57 -8 18 0 33
-5 33 -10 0 -4 6 -6 14 -3 8 3 17 3 20 0 5 -5 26 -8 121 -18 17 -1 30 -4 30
-5 0 -1 18 -4 40 -5 22 -2 40 -4 40 -4 0 -1 23 -4 50 -6 28 -2 72 -6 100 -9
137 -14 294 -20 525 -20 284 1 445 8 635 30 33 4 76 8 95 10 19 1 46 5 60 8
14 2 48 7 75 11 28 4 65 8 83 11 18 2 42 8 51 14 10 5 21 7 23 4 3 -2 27 0 54
7 27 6 60 13 74 15 14 3 52 12 85 21 33 8 69 17 80 19 11 2 52 13 90 24 39 12
77 23 86 25 39 8 241 81 314 112 44 19 85 35 90 37 6 1 58 25 116 54 59 29
111 52 118 52 6 0 11 4 11 9 0 5 15 14 33 21 17 8 51 26 75 42 24 15 45 28 47
28 5 0 219 142 225 149 3 4 21 18 40 31 19 13 37 27 40 30 3 3 23 18 45 35 22
16 42 32 45 35 3 4 41 38 85 77 94 82 227 219 312 320 18 21 44 52 58 68 15
17 37 46 51 65 34 51 122 173 133 186 5 6 17 26 26 44 9 18 26 42 36 53 10 12
19 27 19 34 0 7 5 13 12 13 6 0 8 3 5 7 -4 3 -1 13 7 22 24 26 186 348 179
355 -3 3 -1 6 5 6 7 0 12 7 12 15 0 8 5 23 10 33 19 33 79 182 73 182 -3 0 -1
6 4 13 9 10 43 101 49 130 1 4 3 9 4 12 1 3 4 10 5 15 1 6 3 11 4 13 2 1 5 13
7 27 2 13 8 27 12 30 7 5 8 9 16 53 3 12 5 22 6 22 1 0 3 7 5 15 2 8 13 49 25
90 11 41 23 86 26 100 2 14 7 32 10 40 3 8 7 26 10 40 2 14 6 36 9 50 10 43
16 74 20 100 2 14 4 26 6 28 2 3 4 11 14 67 4 28 10 57 11 65 2 8 6 35 9 60 3
25 8 52 10 60 2 8 6 42 10 75 3 33 8 69 11 80 2 11 6 49 9 85 2 36 5 65 6 65
2 0 8 67 13 160 3 50 6 90 6 90 5 0 11 230 12 445 1 290 -9 535 -27 725 -3 22
-7 69 -10 105 -3 36 -8 76 -10 90 -3 14 -8 48 -11 75 -3 28 -12 88 -20 135 -7
47 -16 102 -20 124 -5 37 -8 49 -19 99 -8 33 -18 90 -18 105 0 6 -4 12 -8 12
-5 0 -6 7 -3 15 3 8 2 20 -2 27 -5 7 -10 22 -11 33 -2 19 -8 42 -34 135 -6 19
-12 42 -13 50 -2 8 -6 23 -11 32 -4 10 -8 29 -9 43 0 14 -4 25 -7 25 -6 0 -20
48 -23 75 -1 6 -4 15 -7 20 -4 6 -17 42 -29 80 -21 63 -63 172 -108 280 -34
83 -167 343 -211 415 -25 41 -52 87 -60 103 -8 15 -18 27 -23 27 -5 0 -6 5 -3
10 3 6 2 10 -2 10 -5 0 -17 15 -28 33 -10 17 -21 34 -25 37 -3 3 -16 22 -29
43 -12 20 -27 37 -32 37 -5 0 -9 5 -9 11 0 10 -51 77 -138 179 -61 72 -282
293 -351 350 -29 25 -62 52 -71 60 -10 8 -28 22 -40 30 -12 8 -28 20 -34 25
-6 6 -33 26 -61 45 -27 19 -52 38 -55 41 -31 35 -465 272 -585 320 -11 5 -47
19 -80 32 -62 25 -221 80 -335 115 -120 38 -403 104 -439 103 -12 -1 -28 2
-34 6 -6 3 -22 7 -36 9 -43 5 -95 12 -116 17 -11 3 -49 8 -85 12 -36 3 -78 8
-95 10 -16 2 -64 7 -105 10 -41 4 -91 9 -110 11 -38 5 -747 13 -752 9z m512
-1479 c148 -12 294 -34 380 -56 301 -80 510 -179 708 -337 82 -65 229 -217
290 -298 28 -39 56 -75 62 -82 5 -7 10 -17 10 -23 0 -5 3 -10 8 -10 8 0 46
-62 44 -72 -1 -3 5 -12 13 -18 8 -7 15 -17 15 -22 0 -6 8 -22 18 -36 30 -45
129 -265 120 -268 -2 0 2 -7 8 -15 9 -11 44 -104 49 -129 1 -3 9 -32 19 -65
20 -64 25 -82 26 -90 0 -3 7 -22 15 -44 12 -34 19 -64 30 -131 1 -8 5 -22 8
-30 3 -8 8 -28 10 -45 3 -16 8 -41 11 -55 3 -14 9 -45 12 -70 7 -52 9 -69 19
-130 8 -51 11 -70 20 -160 3 -36 8 -76 11 -90 2 -14 6 -72 9 -129 3 -57 8
-108 11 -112 3 -5 0 -9 -7 -9 -8 0 -8 -4 -1 -12 15 -19 14 -671 -2 -680 -8 -6
-7 -8 2 -8 7 0 11 -3 9 -7 -3 -5 -8 -53 -12 -108 -12 -163 -24 -283 -31 -320
-2 -10 -6 -37 -9 -60 -11 -76 -24 -154 -32 -190 -3 -16 -7 -39 -9 -50 -2 -11
-5 -27 -7 -35 -2 -8 -7 -33 -11 -55 -4 -22 -12 -53 -16 -70 -5 -16 -16 -57
-25 -90 -26 -94 -56 -187 -70 -220 -8 -16 -11 -33 -9 -37 3 -4 0 -8 -7 -8 -7
0 -10 -3 -6 -6 3 -4 -3 -25 -15 -48 -11 -22 -20 -43 -20 -46 3 -9 -111 -235
-144 -288 -19 -29 -34 -57 -34 -62 0 -6 -4 -10 -10 -10 -5 0 -10 -5 -10 -10 0
-6 -4 -16 -10 -23 -5 -7 -38 -48 -72 -92 -86 -111 -217 -240 -320 -316 -87
-64 -183 -127 -183 -120 0 2 -23 -10 -51 -27 -74 -44 -246 -111 -379 -148 -5
-2 -23 -6 -40 -9 -16 -3 -39 -9 -50 -12 -24 -8 -29 -9 -80 -17 -23 -4 -52 -9
-65 -11 -14 -3 -50 -7 -80 -10 -30 -2 -55 -5 -55 -6 0 -4 -317 -20 -390 -20
-28 0 -200 10 -200 11 0 1 -18 3 -40 5 -44 4 -97 12 -135 20 -14 3 -36 8 -50
11 -14 2 -32 7 -40 11 -8 3 -24 7 -35 8 -26 3 -199 63 -249 86 -22 11 -46 19
-53 19 -7 0 -13 4 -13 10 0 5 -3 9 -7 8 -5 -1 -27 8 -51 21 -39 20 -58 30
-133 73 -13 7 -26 15 -29 18 -3 3 -25 19 -50 35 -55 37 -65 45 -154 120 -90
76 -147 133 -216 215 -30 36 -58 67 -62 68 -5 2 -8 8 -8 13 0 5 -15 30 -34 56
-43 62 -73 114 -139 243 -48 95 -65 132 -88 195 -4 11 -21 57 -37 103 -17 45
-28 82 -25 82 3 0 1 6 -4 13 -6 6 -16 37 -24 67 -7 30 -18 58 -23 62 -6 4 -8
10 -4 13 3 3 -3 38 -13 78 -19 71 -64 311 -75 397 -11 89 -16 146 -18 187 0
24 -3 43 -6 43 -3 0 -6 30 -8 68 -4 105 -8 148 -16 160 -3 6 -2 13 4 17 7 4 7
12 0 26 -8 13 -7 19 0 19 7 0 8 6 2 18 -10 21 -9 522 1 539 4 6 3 14 -3 18 -6
4 -8 11 -5 16 3 5 8 48 10 96 3 49 7 113 10 143 3 30 8 78 10 105 8 77 15 138
19 165 3 14 7 45 10 70 3 25 8 56 11 70 3 14 7 41 10 60 4 28 42 199 70 315 3
11 7 29 9 40 5 20 62 197 73 225 3 8 7 20 8 25 7 29 98 231 139 305 25 47 51
96 58 110 7 14 17 30 21 35 5 6 17 24 27 40 54 84 80 114 205 237 108 108 109
108 175 158 25 19 48 39 52 45 4 5 8 6 8 2 0 -5 17 4 38 20 94 73 276 165 443
224 63 22 123 42 134 44 11 2 65 12 120 24 55 11 132 23 170 26 39 4 71 8 73
10 5 4 386 -3 462 -9z"/>
<path d="M3209 12366 c-2 -2 -44 -6 -94 -10 -49 -3 -99 -8 -111 -10 -12 -2
-45 -8 -75 -12 -30 -4 -63 -8 -74 -10 -11 -1 -20 -3 -20 -4 0 -1 -9 -3 -20 -5
-11 -1 -38 -6 -60 -10 -22 -4 -44 -8 -50 -9 -5 -1 -16 -5 -22 -9 -7 -5 -13 -6
-13 -3 0 8 -357 -95 -385 -112 -5 -4 -14 -7 -20 -8 -20 -4 -140 -56 -152 -66
-7 -6 -13 -8 -13 -5 0 4 -24 -6 -52 -20 -29 -15 -54 -25 -54 -22 -1 2 -11 -4
-21 -14 -11 -9 -23 -14 -26 -10 -4 3 -7 1 -7 -5 0 -7 -5 -12 -12 -12 -28 0
-345 -197 -448 -279 -43 -34 -206 -195 -261 -257 -104 -118 -304 -437 -315
-503 -2 -8 -6 -17 -11 -20 -4 -3 -14 -24 -22 -46 -7 -22 -19 -53 -26 -70 -17
-40 -46 -122 -49 -138 -2 -6 -8 -32 -15 -57 -8 -25 -15 -52 -16 -60 -2 -8 -4
-16 -5 -17 -2 -2 -4 -12 -5 -23 -1 -11 -4 -22 -5 -25 -5 -9 -20 -97 -26 -150
-2 -16 -7 -50 -11 -75 -13 -84 -7 -650 7 -650 3 0 6 -10 7 -22 1 -13 5 -43 9
-68 4 -25 6 -51 5 -57 -1 -7 3 -13 8 -13 6 0 8 -7 5 -15 -4 -9 -1 -28 5 -43 6
-15 13 -38 15 -52 10 -49 23 -98 30 -109 4 -6 9 -19 11 -28 2 -10 12 -42 24
-70 11 -29 19 -53 16 -53 -3 0 7 -20 21 -45 13 -25 23 -45 20 -45 -10 0 143
-283 156 -288 4 -2 8 -10 8 -17 0 -8 6 -20 12 -27 24 -25 78 -106 78 -116 0
-6 3 -12 8 -14 4 -1 37 -39 72 -83 122 -150 237 -269 360 -369 41 -33 77 -64
78 -68 2 -5 8 -8 13 -8 8 0 68 -42 134 -96 17 -13 35 -24 42 -24 6 0 13 -4 15
-8 2 -5 39 -32 83 -60 44 -28 85 -56 92 -62 7 -5 16 -10 21 -10 4 0 17 -8 28
-17 10 -10 35 -26 54 -35 38 -18 92 -50 100 -58 3 -3 28 -16 55 -30 28 -14 52
-27 55 -30 7 -7 295 -150 303 -150 4 0 44 -17 89 -39 145 -67 163 -75 171 -73
4 1 7 -2 7 -7 0 -5 10 -13 23 -17 24 -7 309 -146 317 -154 3 -3 32 -19 65 -36
79 -40 200 -106 304 -166 46 -26 88 -48 92 -48 5 0 9 -3 9 -8 0 -4 17 -16 38
-27 20 -10 51 -29 69 -42 17 -13 36 -23 42 -23 5 0 14 -6 18 -13 4 -7 19 -20
33 -28 55 -35 270 -246 270 -265 0 -3 13 -22 29 -42 72 -93 129 -241 137 -357
1 -27 4 -52 4 -55 4 -10 0 -115 -5 -165 -7 -67 -9 -78 -18 -92 -5 -7 -6 -13
-3 -13 6 0 -26 -91 -50 -145 -18 -38 -70 -118 -104 -158 -39 -48 -140 -142
-140 -131 0 4 -8 0 -18 -9 -35 -32 -350 -168 -369 -159 -2 0 -17 -4 -35 -9
-18 -6 -43 -12 -55 -15 -65 -12 -82 -15 -128 -21 -27 -3 -55 -10 -62 -15 -7
-5 -14 -5 -18 2 -3 6 -10 8 -15 5 -11 -7 -141 -7 -300 -1 -134 6 -190 10 -305
23 -33 3 -77 7 -97 7 -21 1 -38 4 -38 8 0 3 -8 5 -17 4 -10 -2 -33 1 -53 6
-19 5 -42 10 -50 10 -33 1 -262 50 -370 79 -63 17 -122 32 -130 34 -8 1 -28 7
-43 14 -16 6 -31 11 -34 11 -12 0 -238 71 -260 82 -11 6 -26 7 -32 4 -6 -4
-14 -1 -17 7 -2 7 -10 14 -17 15 -14 1 -51 10 -54 12 -2 2 -6 3 -10 5 -5 1
-15 4 -23 7 -8 3 -37 13 -65 23 -27 9 -59 20 -70 25 -11 4 -58 22 -105 40 -89
33 -171 65 -205 79 -227 95 -224 93 -348 151 -49 22 -94 40 -101 40 -8 0 -11
-209 -11 -832 l0 -831 66 -31 c36 -17 86 -39 110 -49 24 -11 59 -26 77 -34 96
-43 381 -141 547 -188 33 -9 67 -20 75 -23 8 -3 22 -6 30 -7 8 0 25 -4 37 -8
12 -4 30 -10 40 -12 10 -2 47 -11 83 -19 115 -28 164 -39 185 -41 11 -1 20 -3
20 -5 0 -1 9 -3 20 -4 11 -2 38 -6 60 -10 22 -4 49 -9 60 -10 11 -2 40 -7 65
-11 25 -4 59 -9 75 -11 17 -2 48 -5 70 -8 72 -9 149 -18 200 -22 28 -2 82 -6
120 -9 151 -13 834 -20 925 -11 81 9 164 17 210 21 25 2 45 5 45 5 0 2 35 8
80 15 22 3 51 7 65 10 14 3 36 7 50 10 14 3 36 7 50 10 14 4 34 8 45 9 19 4
91 21 125 31 8 2 40 11 70 20 30 9 62 18 70 20 8 2 16 4 18 5 1 2 7 4 12 5 6
1 12 4 15 5 5 3 6 3 50 15 17 4 36 13 44 19 8 6 17 10 20 10 15 -3 238 86 343
138 43 21 82 38 88 38 5 0 10 5 10 10 0 6 6 10 13 10 7 0 39 15 70 34 30 19
58 31 61 28 3 -3 6 -1 6 5 0 5 12 15 28 22 56 26 260 167 332 230 76 68 190
179 190 187 0 2 15 19 33 38 51 55 92 109 89 118 -1 4 2 8 7 8 18 0 221 333
221 363 0 6 7 18 16 28 8 9 16 26 17 38 1 11 6 21 11 21 5 0 6 3 3 7 -4 3 -3
11 2 17 10 13 50 118 61 161 5 17 17 62 29 100 25 88 33 123 34 158 1 15 4 27
7 27 4 0 6 10 6 23 1 12 4 38 8 57 26 141 26 579 0 755 -3 22 -7 51 -9 65 -2
14 -4 25 -5 25 -1 0 -3 11 -5 25 -20 130 -80 327 -151 490 -47 106 -152 297
-181 328 -7 7 -13 17 -13 22 0 5 -6 15 -12 22 -7 7 -25 29 -40 49 -66 88 -333
343 -498 474 -41 33 -77 62 -80 65 -3 3 -30 23 -60 45 -30 22 -56 43 -58 47
-2 5 -10 8 -17 8 -7 0 -15 4 -17 8 -4 11 -186 133 -301 202 -178 106 -389 212
-587 295 -36 15 -70 31 -76 36 -6 5 -14 6 -17 2 -4 -3 -7 -1 -7 5 0 7 -6 12
-14 12 -8 0 -31 9 -53 19 -21 11 -126 63 -233 116 -235 115 -436 222 -532 282
-21 13 -40 23 -42 23 -5 0 -109 63 -116 70 -3 3 -17 11 -32 17 -34 15 -160
110 -213 160 -46 43 -101 105 -130 147 -11 15 -25 33 -30 40 -16 17 -81 147
-90 181 -17 63 -18 67 -33 140 -6 34 -9 250 -2 250 1 0 3 16 5 35 2 19 4 36 5
38 1 1 4 7 5 12 1 6 3 11 5 13 1 1 3 10 5 21 4 23 47 129 54 136 3 3 17 26 31
53 13 26 28 47 32 47 5 0 8 5 8 11 0 19 132 143 195 183 32 21 89 52 125 69
36 17 68 36 72 42 4 5 8 7 8 3 0 -4 24 1 53 12 131 49 217 59 462 54 263 -4
325 -7 325 -14 0 -3 21 -5 48 -5 26 0 52 -2 57 -5 12 -5 23 -7 85 -14 72 -8
124 -17 140 -23 8 -3 26 -7 40 -9 14 -2 32 -5 40 -7 8 -2 29 -7 45 -11 82 -19
176 -44 232 -62 24 -8 57 -16 75 -19 18 -3 37 -10 43 -15 5 -4 15 -9 20 -9 6
-1 42 -11 80 -23 39 -12 75 -23 80 -24 48 -11 361 -127 535 -197 74 -30 138
-52 141 -49 3 4 32 70 64 147 31 77 65 158 75 180 29 67 105 250 106 255 1 8
20 51 52 123 17 37 31 68 31 70 -1 5 67 172 107 262 14 32 36 87 39 95 1 3 6
16 12 30 98 232 99 237 62 244 -8 1 -41 15 -74 30 -33 15 -82 37 -110 48 -27
11 -61 25 -75 31 -14 6 -27 11 -30 12 -18 4 -128 47 -142 55 -10 6 -22 10 -27
10 -5 0 -22 5 -38 12 -15 6 -30 12 -33 13 -3 1 -12 4 -20 8 -102 39 -488 160
-584 182 -10 2 -42 11 -71 20 -73 21 -285 67 -312 68 -13 1 -23 4 -23 7 0 3
-21 6 -47 7 -25 2 -49 6 -52 10 -3 5 -17 8 -31 9 -50 2 -105 8 -115 13 -5 3
-27 6 -49 7 -22 1 -62 5 -90 9 -59 7 -129 13 -241 20 -100 7 -691 16 -696 11z"/>
</g>
</svg>
